<?xml version="1.0" standalone="no"?><!DOCTYPE svg PUBLIC "-//W3C//DTD SVG 1.1//EN" "http://www.w3.org/Graphics/SVG/1.1/DTD/svg11.dtd"><svg t="1500019936421" class="icon" style="" viewBox="0 0 1024 1024" version="1.1" xmlns="http://www.w3.org/2000/svg" p-id="4123" xmlns:xlink="http://www.w3.org/1999/xlink" width="200" height="200"><defs><style type="text/css"></style></defs><path d="M821.905724 198.765973c-28.696576-30.760584-74.983785-30.760584-103.627149 0-28.641317 30.733978-28.641317 80.804351 0 111.565958 55.351656 59.724243 85.818551 138.919956 85.818551 223.103264 0 84.21196-30.466895 163.568333-85.818551 223.131916-110.708428 119.450533-303.534108 119.450533-414.187277 0-55.405891-59.724243-85.872786-138.866744-85.872786-223.131916 0-84.316338 30.466895-163.53968 85.872786-223.103264 28.53387-30.761608 28.53387-80.83198 0-111.565958-28.64234-30.760584-75.03802-30.760584-103.626125 0C117.488343 288.151769 71.788511 407.092695 71.788511 533.434172c0 126.290311 45.699832 245.283426 128.676662 334.697874 83.030042 89.412402 193.307657 138.705062 310.719764 138.705062 117.467365 0 227.690746-49.453319 310.72181-138.865721C904.882554 778.959098 950.583408 659.96496 950.583408 533.434172c0-126.341476-45.701878-245.282403-128.677684-334.668199zM511.184937 631.589702c40.496319 0 73.214489-34.111912 73.214488-76.673263V94.870718c0-42.400692-32.718169-76.674287-73.214488-76.674287-40.495296 0-73.266677 34.273595-73.266678 76.674287v460.045721c0 42.23901 32.771381 76.673264 73.266678 76.673263z" fill="#231815" p-id="4124"></path></svg>