<?xml version="1.0" standalone="no"?><!DOCTYPE svg PUBLIC "-//W3C//DTD SVG 1.1//EN" "http://www.w3.org/Graphics/SVG/1.1/DTD/svg11.dtd"><svg t="1500612842305" class="icon" style="" viewBox="0 0 1036 1024" version="1.1" xmlns="http://www.w3.org/2000/svg" p-id="2477" xmlns:xlink="http://www.w3.org/1999/xlink" width="202.34375" height="200"><defs><style type="text/css"></style></defs><path d="M972.8 403.911111l-91.022222 0c-5.688889-17.066667-22.755556-56.888889-34.133333-85.333333L910.222222 256c22.755556-22.755556 22.755556-51.2 0-73.955556L836.266667 113.777778c-22.755556-22.755556-51.2-17.066667-73.955556 0l-62.577778 62.577778c-28.444444-17.066667-62.577778-28.444444-85.333333-34.133333L614.4 51.2c0-28.444444-28.444444-51.2-56.888889-51.2L460.8 0c-28.444444 0-56.888889 22.755556-56.888889 51.2l0 91.022222c-17.066667 5.688889-56.888889 22.755556-85.333333 34.133333L256 113.777778C238.933333 91.022222 204.8 91.022222 187.733333 113.777778L113.777778 187.733333C91.022222 204.8 91.022222 238.933333 113.777778 256l62.577778 62.577778C159.288889 347.022222 147.911111 381.155556 142.222222 403.911111L51.2 403.911111C22.755556 403.911111 0 432.355556 0 460.8l0 102.4c0 28.444444 22.755556 56.888889 51.2 56.888889l91.022222 0c5.688889 17.066667 22.755556 56.888889 34.133333 85.333333L113.777778 768c-22.755556 22.755556-22.755556 51.2 0 73.955556L187.733333 910.222222c22.755556 22.755556 51.2 17.066667 73.955556 0l62.577778-62.577778c28.444444 17.066667 62.577778 28.444444 85.333333 34.133333l0 91.022222c0 28.444444 28.444444 51.2 56.888889 51.2l102.4 0c28.444444 0 56.888889-22.755556 56.888889-51.2l0-91.022222c17.066667-5.688889 56.888889-22.755556 85.333333-34.133333l62.577778 62.577778c22.755556 22.755556 51.2 22.755556 73.955556 0l73.955556-73.955556c22.755556-22.755556 17.066667-51.2 0-73.955556l-62.577778-62.577778c17.066667-28.444444 28.444444-62.577778 34.133333-85.333333l91.022222 0c28.444444 0 51.2-28.444444 51.2-56.888889L1035.377778 460.8C1024 432.355556 1001.244444 403.911111 972.8 403.911111L972.8 403.911111zM512 739.555556C381.155556 739.555556 278.755556 637.155556 278.755556 512c0-125.155556 102.4-233.244444 233.244444-233.244444C637.155556 278.755556 739.555556 381.155556 739.555556 512 739.555556 637.155556 637.155556 739.555556 512 739.555556L512 739.555556zM512 739.555556" p-id="2478"></path></svg>