<?xml version="1.0" standalone="no"?><!DOCTYPE svg PUBLIC "-//W3C//DTD SVG 1.1//EN" "http://www.w3.org/Graphics/SVG/1.1/DTD/svg11.dtd"><svg t="1500019399414" class="icon" style="" viewBox="0 0 1024 1024" version="1.1" xmlns="http://www.w3.org/2000/svg" p-id="3465" xmlns:xlink="http://www.w3.org/1999/xlink" width="200" height="200"><defs><style type="text/css"></style></defs><path d="M564.55218 1021.3137c1.693047-0.180592 3.36352-0.451479 5.056567-0.632071 6.907632-0.767515 13.815264-1.580177 20.655174-2.641153 1.760769-0.270888 3.498964-0.654645 5.259733-0.948106 6.72704-1.106124 13.454081-2.234822 20.090825-3.611834 1.30929-0.270888 2.596005-0.632071 3.927869-0.902958 7.020502-1.512455 14.041004-3.070059 20.948635-4.853402 1.241568-0.316035 2.460562-0.722367 3.70213-1.060976 6.95278-1.851065 13.882986-3.792425 20.700322-5.914378 0.993254-0.316035 1.941361-0.677219 2.934615-0.993254 7.06565-2.257396 14.086151-4.605088 21.016357-7.155946 0.428905-0.158018 0.857811-0.338609 1.286716-0.519201 7.426833-2.754023 14.785944-5.666064 22.05476-8.758697 0.316035-0.135444 0.632071-0.293461 0.97068-0.428905 182.713637-78.173626 310.753142-259.532825 310.753142-470.825097 0-282.716283-229.193422-511.909705-511.909705-511.909705C229.283717 0.135444 0.090295 229.328866 0.090295 512.067723c0 202.714166 117.836074 377.865527 288.720956 460.802258 0.067722 0.022574 0.135444 0.067722 0.180592 0.090296 7.110798 3.453816 14.334465 6.704466 21.625854 9.842247 0.406331 0.180592 0.790089 0.361183 1.19642 0.541775 7.178519 3.047485 14.469909 5.936952 21.82902 8.668401 0.519201 0.180592 1.015828 0.406331 1.535029 0.609497 6.975354 2.573432 14.063577 4.943697 21.174375 7.201093 0.925532 0.293461 1.828491 0.654645 2.754023 0.925532 6.907632 2.1671 13.90556 4.108461 20.948635 5.9821 1.151272 0.316035 2.302544 0.677219 3.453816 0.993254 6.930206 1.783343 13.950708 3.36352 20.993783 4.875975 1.30929 0.270888 2.573432 0.632071 3.882721 0.902958 6.636744 1.354438 13.363785 2.50571 20.090825 3.611834 1.760769 0.293461 3.498964 0.677219 5.259733 0.948106 6.83991 1.038402 13.724968 1.873639 20.655174 2.641153 1.693047 0.180592 3.36352 0.474053 5.056567 0.632071 7.855738 0.790089 15.756625 1.377012 23.702659 1.805917 0.790089 0.045148 1.580177 0.135444 2.370266 0.180592 8.758697 0.451479 17.585115 0.677219 26.456682 0.677219s17.697985-0.22574 26.456682-0.677219c0.790089-0.045148 1.580177-0.135444 2.370266-0.180592C548.795556 1022.668138 556.696442 1022.103789 564.55218 1021.3137zM805.75495 874.334643c-8.961862 7.291389-18.262334 14.153873-27.765972 20.768044-2.50571 1.738195-4.943697 3.58926-7.494555 5.282307-10.3163 6.885058-20.971209 13.296063-31.829284 19.345884-2.05423 1.151272-4.040739 2.39284-6.117543 3.498964-11.219258 6.027247-22.754552 11.51272-34.493012 16.637009-2.05423 0.902958-4.063313 1.918787-6.140117 2.776597-11.535294 4.830828-23.386623 9.052158-35.350822 12.957453-2.550858 0.835237-5.033993 1.828491-7.584851 2.596005-11.422424 3.521538-23.13831 6.365857-34.921917 9.00701-3.273224 0.722367-6.478727 1.693047-9.774525 2.347692-11.422424 2.302544-23.115736 3.882721-34.831621 5.327455-3.679556 0.451479-7.291389 1.19642-11.016093 1.557603-15.169702 1.512455-30.542569 2.325118-46.096028 2.325118-0.11287 0-0.248314 0.022574-0.361183 0.022574s-0.248314-0.022574-0.361183-0.022574c-15.553459-0.022574-30.926326-0.835237-46.096028-2.325118-3.70213-0.361183-7.313963-1.106124-11.016093-1.557603-11.715886-1.444733-23.386623-3.024911-34.831621-5.327455-3.295798-0.654645-6.501301-1.625325-9.774525-2.347692-11.783607-2.641153-23.499493-5.485472-34.921917-9.00701-2.573432-0.790089-5.056567-1.783343-7.607425-2.618579-11.964199-3.905295-23.815528-8.126626-35.350822-12.957453-2.076804-0.857811-4.085887-1.873639-6.140117-2.776597-11.73846-5.124289-23.273753-10.609761-34.493012-16.637009-2.076804-1.106124-4.063313-2.370266-6.117543-3.498964-10.858075-6.072395-21.512984-12.460826-31.806711-19.345884-2.550858-1.693047-4.988845-3.544112-7.517129-5.304881-9.481063-6.61417-18.781535-13.476654-27.743398-20.768044-3.137781-2.550858-6.162691-5.282307-9.23275-7.92346-5.733786-4.921123-11.264406-10.045412-16.749879-15.214849C192.08183 847.13302 191.96896 843.137429 191.96896 839.232134c0-118.26498 64.651823-221.518276 160.320268-276.914775l0 0c40.610555 41.400644 97.135753 67.134959 159.710771 67.134959 62.575019 0 119.100216-25.734315 159.710771-67.134959 95.668445 55.396499 160.320268 158.649795 160.320268 276.914775 0 3.905295-0.11287 7.878312-0.293461 11.941625-5.485472 5.169437-11.016093 10.3163-16.749879 15.237423C811.917641 869.052336 808.89273 871.783785 805.75495 874.334643zM512 584.304397c-98.535338 0-178.695472-80.160134-178.695472-178.695472 0-98.535338 80.160134-178.695472 178.695472-178.695472 98.535338 0 178.695472 80.160134 178.695472 178.695472C690.718046 504.144263 610.535338 584.304397 512 584.304397zM512 45.283365c257.365725 0 466.761784 209.396059 466.761784 466.761784 0 110.634981-38.87236 212.262952-103.433888 292.33279-11.241832-118.016666-78.647679-219.486619-175.219082-277.727438 0 0 0 0 0 0 22.528813-34.921917 35.73458-76.412857 35.73458-121.064151 0-123.637582-100.228385-223.843394-223.843394-223.843394-123.637582 0-223.843394 100.228385-223.843394 223.843394 0 44.651294 13.228341 86.142234 35.73458 121.064151 0 0 0 0 0 0-96.571404 58.240818-163.999824 159.710771-175.219082 277.727438C84.110576 724.3081 45.238216 622.702704 45.238216 512.067723 45.238216 254.679424 254.634275 45.283365 512 45.283365z" p-id="3466"></path></svg>